<svg xmlns="http://www.w3.org/2000/svg" viewBox="0 0 841.9 595.3">
<g transform="scale(1.5)">
<path fill="#ffb127" d="M169.59,84.55c-1.97-0.92-3.13-2.87-3.13-4.9v-5.41h4.84v1.47h-3.39v3.95c-0.01,2.35,2.189,4.27,4.58,3.9
	l0.439,1.39C171.811,85.15,170.76,85.09,169.59,84.55z M144.35,84.55c-1.97-0.92-3.129-2.87-3.129-4.9v-5.41h4.84v1.47h-3.391v3.95
	c-0.01,2.35,2.189,4.27,4.58,3.9l0.439,1.39C146.57,85.15,145.52,85.09,144.35,84.55z M184.34,83.59c0.68,0,1.24-0.56,1.24-1.24
	c0-0.29-0.1-0.56-0.27-0.78l-1.871-2.21l-0.56-0.66c-0.399-0.47-0.649-1.08-0.649-1.75c0-1.49,1.209-2.71,2.699-2.71h1.01v1.47
	h-1.01c-0.68,0-1.24,0.56-1.24,1.24c0,0.29,0.101,0.57,0.271,0.78l2.06,2.44l0.371,0.44c0.399,0.47,0.649,1.08,0.649,1.75
	c0,1.49-1.21,2.7-2.7,2.7c-0.71-0.01-1.43-0.16-2.199-0.4l0.439-1.4l0.5,0.16C183.5,83.54,183.93,83.59,184.34,83.59z M201.93,74.08
	v10.97h-1.459V74.08H201.93z M178.04,74.08v10.97h-1.46V74.08H178.04z M135.15,83.59c0.68,0,1.24-0.56,1.24-1.24
	c0-0.29-0.101-0.56-0.271-0.78l-1.87-2.21l-0.561-0.66c-0.399-0.47-0.649-1.08-0.649-1.75c0-1.49,1.21-2.71,2.7-2.71h1.01v1.47
	h-1.01c-0.68,0-1.24,0.56-1.24,1.24c0,0.29,0.1,0.57,0.27,0.78l2.061,2.44l0.37,0.44c0.399,0.47,0.649,1.08,0.649,1.75
	c0,1.49-1.209,2.7-2.699,2.7c-0.711-0.01-1.43-0.16-2.2-0.4l0.44-1.4l0.5,0.16C134.311,83.54,134.74,83.59,135.15,83.59z
	M210.95,79.07c0.45,0.25,0.85,0.56,1.2,0.9l4.229,5.08h-1.909l-3.4-4.08c-0.711-0.69-1.69-1.09-2.69-1.1l-0.3,0.01v5.16h-1.471
	V74.23h1.471v4.18l0.27-0.01c0.92-0.06,1.811-0.45,2.471-1.09l2.55-3.06h1.909L211.9,78.3C211.63,78.59,211.3,78.85,210.95,79.07z
	M221.24,84.56c-2.711-1.26-3.881-4.49-2.62-7.2c1.64-3.51,6.14-4.08,8.71-1.56l7.12,8.41l-0.91,1.19l-7.28-8.6
	c-1.869-1.81-5.13-1.34-6.31,1.18c-1.5,3.21,1.62,6.43,4.771,5.43l0.5-0.16l0.439,1.4C224.1,85.14,222.779,85.27,221.24,84.56z
	M152.16,84.56c-2.71-1.26-3.881-4.49-2.62-7.2c1.64-3.51,6.14-4.08,8.71-1.56l7.12,8.41l-0.91,1.19l-7.28-8.6
	c-1.869-1.81-5.13-1.34-6.31,1.18c-1.5,3.21,1.62,6.43,4.771,5.43l0.5-0.16l0.439,1.4C155.02,85.14,153.7,85.27,152.16,84.56z
	M169.48,69.58c-1.971-0.92-3.131-2.87-3.131-4.9v-5.41h4.84v1.47h-3.39v3.95c-0.01,2.35,2.19,4.27,4.58,3.9l0.44,1.39
	C171.7,70.18,170.65,70.13,169.48,69.58z M159.99,68.62c0.68,0,1.24-0.56,1.24-1.24c0-0.29-0.101-0.57-0.271-0.78l-1.87-2.21
	l-0.561-0.66c-0.399-0.47-0.649-1.08-0.649-1.75c0-1.49,1.21-2.71,2.7-2.71h1.01v1.47h-1.01c-0.68,0-1.24,0.56-1.24,1.24
	c0,0.29,0.1,0.57,0.27,0.78l2.061,2.44l0.37,0.44c0.399,0.47,0.649,1.09,0.649,1.75c0,1.49-1.209,2.7-2.699,2.7
	c-0.711-0.01-1.43-0.16-2.2-0.41l0.44-1.4l0.5,0.16C159.15,68.57,159.57,68.63,159.99,68.62z M178.04,59.27v10.81h-1.46V59.27
	H178.04z M136.07,69.58c-2.711-1.26-3.881-4.49-2.62-7.2c1.63-3.49,6.13-4.09,8.69-1.58l0.34,0.33L138.43,66l-0.959-1.14l2.959-3.55
	c-1.99-1.23-4.65-0.48-5.66,1.69c-1.5,3.21,1.621,6.43,4.771,5.43l0.5-0.16l0.44,1.4C138.939,70.17,137.609,70.3,136.07,69.58z
	M148.16,69.58c-2.71-1.26-3.881-4.49-2.62-7.2c0.94-2.01,2.83-3.06,4.75-3.12h0.29c1.32,0.04,2.63,0.54,3.65,1.54l0.34,0.33
	L150.52,66l-0.959-1.14l2.959-3.55c-1.99-1.23-4.649-0.48-5.66,1.69c-1.5,3.21,1.621,6.43,4.771,5.43l0.5-0.16l0.44,1.4
	C151.02,70.17,149.7,70.3,148.16,69.58z M193.54,84.55c-1.97-0.92-3.13-2.87-3.13-4.9v-5.41h4.84v1.47h-3.391v3.95
	c-0.01,2.35,2.19,4.27,4.58,3.9l0.44,1.39C195.76,85.15,194.71,85.09,193.54,84.55z M110.41,101.18c0-1.99-0.81-3.8-2.11-5.1
	l-15.73-16.6c-2.68-2.71-4.36-6.45-4.36-10.58c0-8.31,6.74-15.05,15.05-15.05c8.31,0,15.05,6.74,15.05,15.05v3.3h-7.83v-3.3
	c0-3.99-3.23-7.22-7.22-7.22c-3.99,0-7.22,3.23-7.22,7.22c0,1.99,0.85,3.84,2.17,5.16l15.73,16.6c1.93,1.97,3.32,4.449,3.93,7.23
	h52.2v0.819H118.03c0.13,0.81,0.2,1.63,0.2,2.479c0,8.311-6.74,15.051-15.05,15.051s-15.05-6.74-15.05-15.051v-3.299h7.82v3.299
	c0,3.99,3.23,7.221,7.22,7.221C107.16,108.41,110.41,105.17,110.41,101.18z M0,97.891h52.13c0.62-2.781,2-5.261,3.93-7.23l5.32-5.62
	l-5.25-5.56c-2.68-2.71-4.36-6.45-4.36-10.58c0-8.17,6.51-14.82,14.63-15.04V0h0.82v53.85c8.12,0.22,14.64,6.87,14.64,15.04v3.3
	h-7.83v-3.3c0-3.99-3.23-7.22-7.22-7.22c-3.99,0-7.22,3.23-7.22,7.22c0,1.99,0.85,3.84,2.18,5.16l10.41,10.98L61.7,96.08
	c-1.3,1.311-2.11,3.109-2.11,5.1c0,3.99,3.23,7.221,7.22,7.221c3.99,0,7.22-3.23,7.22-7.221v-3.3h7.83v3.3
	c0,8.17-6.51,14.82-14.63,15.041v53.85h-0.82v-53.85c-8.12-0.211-14.64-6.871-14.64-15.041c0-0.84,0.07-1.67,0.2-2.479H0V97.891z"/>
</g>

</svg>
